<svg width="24" height="32" viewBox="0 0 24 32" fill="none" xmlns="http://www.w3.org/2000/svg">
  <g clip-path="url(#clip0_34_1534)">
    <path fill-rule="evenodd" clip-rule="evenodd" d="M19.5 7H17.25V6.25C17.25 5.83579 16.9142 5.5 16.5 5.5C16.0858 5.5 15.75 5.83579 15.75 6.25V7H8.25V6.25C8.25 5.83579 7.91421 5.5 7.5 5.5C7.08579 5.5 6.75 5.83579 6.75 6.25V7H4.5C3.67157 7 3 7.67157 3 8.5V23.5C3 24.3284 3.67157 25 4.5 25H19.5C20.3284 25 21 24.3284 21 23.5V8.5C21 7.67157 20.3284 7 19.5 7ZM6.75 8.5V9.25C6.75 9.66421 7.08579 10 7.5 10C7.91421 10 8.25 9.66421 8.25 9.25V8.5H15.75V9.25C15.75 9.66421 16.0858 10 16.5 10C16.9142 10 17.25 9.66421 17.25 9.25V8.5H19.5V11.5H4.5V8.5H6.75ZM19.5 23.5H4.5V13H19.5V23.5ZM10.5 15.25V21.25C10.5 21.6642 10.1642 22 9.75 22C9.33579 22 9 21.6642 9 21.25V16.4631L8.58562 16.6713C8.2149 16.8566 7.76411 16.7063 7.57875 16.3356C7.39339 15.9649 7.54365 15.5141 7.91437 15.3287L9.41438 14.5787C9.64695 14.4624 9.92322 14.4748 10.1444 14.6116C10.3656 14.7483 10.5002 14.9899 10.5 15.25ZM16.0462 18.1047L14.25 20.5H15.75C16.1642 20.5 16.5 20.8358 16.5 21.25C16.5 21.6642 16.1642 22 15.75 22H12.75C12.4659 22 12.2062 21.8395 12.0792 21.5854C11.9521 21.3313 11.9796 21.0273 12.15 20.8L14.8481 17.2028C15.0153 16.9802 15.0455 16.6833 14.9264 16.4316C14.8073 16.1799 14.5586 16.0149 14.2804 16.003C14.0023 15.9912 13.7404 16.1344 13.6003 16.375C13.4702 16.6146 13.2203 16.7647 12.9476 16.7671C12.675 16.7694 12.4226 16.6236 12.2884 16.3863C12.1542 16.1489 12.1593 15.8574 12.3019 15.625C12.8112 14.7435 13.849 14.3139 14.8324 14.5774C15.8158 14.8409 16.4997 15.7319 16.5 16.75C16.5016 17.2391 16.3421 17.7152 16.0462 18.1047Z" fill="#808080"/>
  </g>
  <defs>
    <clipPath id="clip0_34_1534">
      <rect width="24" height="24" fill="white" transform="translate(0 4)"/>
    </clipPath>
  </defs>
</svg>
