<svg width="21" height="21" viewBox="0 0 21 21" fill="none" xmlns="http://www.w3.org/2000/svg">
<path d="M14.4678 17.7397H6.13444C3.09277 17.7397 1.34277 15.9897 1.34277 12.948V7.11467C1.34277 4.073 3.09277 2.323 6.13444 2.323H14.4678C17.5094 2.323 19.2594 4.073 19.2594 7.11467V12.948C19.2594 15.9897 17.5094 17.7397 14.4678 17.7397ZM6.13444 3.573C3.75111 3.573 2.59277 4.73133 2.59277 7.11467V12.948C2.59277 15.3313 3.75111 16.4897 6.13444 16.4897H14.4678C16.8511 16.4897 18.0094 15.3313 18.0094 12.948V7.11467C18.0094 4.73133 16.8511 3.573 14.4678 3.573H6.13444Z" fill="#525252"/>
<path d="M10.3008 10.7563C9.60076 10.7563 8.89243 10.5397 8.35076 10.098L5.74242 8.01468C5.47576 7.79802 5.42576 7.40635 5.64243 7.13968C5.8591 6.87301 6.25076 6.82302 6.51743 7.03968L9.12576 9.12302C9.75909 9.63135 10.8341 9.63135 11.4674 9.12302L14.0758 7.03968C14.3424 6.82302 14.7424 6.86468 14.9508 7.13968C15.1674 7.40635 15.1258 7.80635 14.8508 8.01468L12.2424 10.098C11.7091 10.5397 11.0008 10.7563 10.3008 10.7563Z" fill="#525252"/>
</svg>
