<svg width="16" height="16" viewBox="0 0 16 16" fill="none" xmlns="http://www.w3.org/2000/svg">
<path d="M4.7666 14.067C4.59993 13.9003 4.5166 13.703 4.5166 13.475C4.5166 13.247 4.59993 13.0499 4.7666 12.8837L9.64994 8.00033L4.74993 3.10033C4.59438 2.94477 4.5166 2.75033 4.5166 2.51699C4.5166 2.28366 4.59993 2.08366 4.7666 1.91699C4.93327 1.75033 5.1306 1.66699 5.3586 1.66699C5.5866 1.66699 5.78371 1.75033 5.94993 1.91699L11.5499 7.53366C11.6166 7.60033 11.6639 7.67255 11.6919 7.75033C11.7199 7.8281 11.7337 7.91144 11.7333 8.00033C11.7333 8.08921 11.7193 8.17255 11.6913 8.25033C11.6633 8.3281 11.6162 8.40032 11.5499 8.46699L5.93327 14.0837C5.77771 14.2392 5.58593 14.317 5.35793 14.317C5.12993 14.317 4.93282 14.2337 4.7666 14.067Z" fill="#2C2C2C"/>
</svg>
