<svg width="21" height="21" viewBox="0 0 21 21" fill="none" xmlns="http://www.w3.org/2000/svg">
<path d="M15.301 8.98966C14.9594 8.98966 14.676 8.70633 14.676 8.36466V6.698C14.676 4.073 13.9344 2.323 10.301 2.323C6.66769 2.323 5.92603 4.073 5.92603 6.698V8.36466C5.92603 8.70633 5.64269 8.98966 5.30103 8.98966C4.95936 8.98966 4.67603 8.70633 4.67603 8.36466V6.698C4.67603 4.28133 5.25936 1.073 10.301 1.073C15.3427 1.073 15.926 4.28133 15.926 6.698V8.36466C15.926 8.70633 15.6427 8.98966 15.301 8.98966Z" fill="#252527"/>
<path d="M14.4678 18.9897H6.13444C2.45944 18.9897 1.34277 17.8731 1.34277 14.1981V12.5314C1.34277 8.85641 2.45944 7.73975 6.13444 7.73975H14.4678C18.1428 7.73975 19.2594 8.85641 19.2594 12.5314V14.1981C19.2594 17.8731 18.1428 18.9897 14.4678 18.9897ZM6.13444 8.98975C3.15111 8.98975 2.59277 9.55641 2.59277 12.5314V14.1981C2.59277 17.1731 3.15111 17.7397 6.13444 17.7397H14.4678C17.4511 17.7397 18.0094 17.1731 18.0094 14.1981V12.5314C18.0094 9.55641 17.4511 8.98975 14.4678 8.98975H6.13444Z" fill="#252527"/>
<path d="M6.96761 14.198C6.85928 14.198 6.75094 14.173 6.65094 14.1313C6.54261 14.0897 6.45928 14.0313 6.37595 13.9563C6.22595 13.798 6.13428 13.5896 6.13428 13.3646C6.13428 13.2563 6.15927 13.148 6.20093 13.048C6.2426 12.9396 6.30095 12.8563 6.37595 12.773C6.45928 12.698 6.54261 12.6396 6.65094 12.598C6.95094 12.4646 7.32594 12.5396 7.55927 12.773C7.63427 12.8563 7.69262 12.948 7.73429 13.048C7.77596 13.148 7.80094 13.2563 7.80094 13.3646C7.80094 13.5813 7.70927 13.798 7.55927 13.9563C7.40094 14.1063 7.18428 14.198 6.96761 14.198Z" fill="#252527"/>
<path d="M10.3011 14.198C10.0844 14.198 9.86778 14.1064 9.70945 13.9564C9.55945 13.798 9.46777 13.5897 9.46777 13.3647C9.46777 13.2564 9.48443 13.148 9.53443 13.048C9.5761 12.948 9.63445 12.8564 9.70945 12.7731C9.90111 12.5814 10.1928 12.4897 10.4594 12.548C10.5178 12.5564 10.5678 12.573 10.6178 12.598C10.6678 12.6147 10.7178 12.6397 10.7678 12.6731C10.8094 12.6981 10.8511 12.7397 10.8928 12.7731C10.9678 12.8564 11.0261 12.948 11.0678 13.048C11.1095 13.148 11.1344 13.2564 11.1344 13.3647C11.1344 13.5897 11.0428 13.798 10.8928 13.9564C10.8511 13.9897 10.8094 14.023 10.7678 14.0564C10.7178 14.0897 10.6678 14.1147 10.6178 14.1314C10.5678 14.1564 10.5178 14.1731 10.4594 14.1814C10.4094 14.1897 10.3511 14.198 10.3011 14.198Z" fill="#252527"/>
<path d="M13.6344 14.198C13.4094 14.198 13.201 14.1064 13.0427 13.9564C12.9677 13.873 12.9093 13.7814 12.8677 13.6814C12.826 13.5814 12.801 13.473 12.801 13.3647C12.801 13.148 12.8927 12.9314 13.0427 12.7731C13.0844 12.7397 13.126 12.7064 13.1677 12.6731C13.2177 12.6397 13.2677 12.6147 13.3177 12.598C13.3677 12.573 13.4177 12.5564 13.4677 12.548C13.7427 12.4897 14.026 12.5814 14.226 12.7731C14.376 12.9314 14.4677 13.1397 14.4677 13.3647C14.4677 13.473 14.4427 13.5814 14.401 13.6814C14.3594 13.7897 14.301 13.873 14.226 13.9564C14.0677 14.1064 13.851 14.198 13.6344 14.198Z" fill="#252527"/>
</svg>
