<svg width="21" height="21" viewBox="0 0 21 21" fill="none" xmlns="http://www.w3.org/2000/svg">
<path d="M10.3009 10.6563C7.65928 10.6563 5.50928 8.50633 5.50928 5.86466C5.50928 3.223 7.65928 1.073 10.3009 1.073C12.9426 1.073 15.0926 3.223 15.0926 5.86466C15.0926 8.50633 12.9426 10.6563 10.3009 10.6563ZM10.3009 2.323C8.35094 2.323 6.75928 3.91466 6.75928 5.86466C6.75928 7.81466 8.35094 9.40633 10.3009 9.40633C12.2509 9.40633 13.8426 7.81466 13.8426 5.86466C13.8426 3.91466 12.2509 2.323 10.3009 2.323Z" fill="#252527"/>
<path d="M17.4592 18.9897C17.1176 18.9897 16.8342 18.7064 16.8342 18.3647C16.8342 15.4897 13.9009 13.1564 10.3009 13.1564C6.70091 13.1564 3.76758 15.4897 3.76758 18.3647C3.76758 18.7064 3.48424 18.9897 3.14258 18.9897C2.80091 18.9897 2.51758 18.7064 2.51758 18.3647C2.51758 14.8064 6.00924 11.9064 10.3009 11.9064C14.5926 11.9064 18.0842 14.8064 18.0842 18.3647C18.0842 18.7064 17.8009 18.9897 17.4592 18.9897Z" fill="#252527"/>
</svg>
