<svg width="20" height="19" viewBox="0 0 20 19" fill="none" xmlns="http://www.w3.org/2000/svg">
  <path fill-rule="evenodd" clip-rule="evenodd" d="M19.3989 18.3774C19.2649 18.6095 19.0172 18.7525 18.7492 18.7524H0.749231C0.48142 18.7522 0.234076 18.6091 0.100289 18.3771C-0.033498 18.1451 -0.0334249 17.8594 0.100481 17.6274C1.52829 15.159 3.72861 13.389 6.29642 12.5499C3.68568 10.9957 2.43508 7.88882 3.24105 4.95934C4.04702 2.02985 6.7109 -0.000109196 9.74923 -0.000109196C12.7876 -0.000109196 15.4514 2.02985 16.2574 4.95934C17.0634 7.88882 15.8128 10.9957 13.202 12.5499C15.7699 13.389 17.9702 15.159 19.398 17.6274C19.5322 17.8593 19.5326 18.1452 19.3989 18.3774Z" fill="#009963"/>
</svg>
